<svg xmlns="http://www.w3.org/2000/svg" viewBox="0 0 64 64" width="64" height="64"><polygon points="32,10 10,30 14,30 14,54 26,54 26,40 38,40 38,54 50,54 50,30 54,30 32,10" fill="#574B73"></polygon><path d="M38,25 C38,22 34,22 34,25 C34,27 36,28 36,30 C36,32 34,33 32,33 C30,33 28,32 28,30" stroke="#A43737" stroke-width="2" fill="none"></path><line x1="32" y1="20" x2="32" y2="26" stroke="#A43737" stroke-width="2"></line><line x1="32" y1="33" x2="32" y2="38" stroke="#A43737" stroke-width="2"></line></svg>