<svg xmlns="http://www.w3.org/2000/svg" viewBox="0 0 512 512"><path fill="#a0a5ab" d="M332,0H180A180,180,0,0,0,0,180V332A180,180,0,0,0,180,512H332A180,180,0,0,0,512,332V180A180,180,0,0,0,332,0ZM205.32,132.16a51.23,51.23,0,1,1,51.29,51.16h-.07a51.19,51.19,0,0,1-51.22-51.15Zm174,110.76L307,249.48a8.53,8.53,0,0,0-7.77,8.48v19.61A34.35,34.35,0,0,0,301.58,290L342.81,394.9a25.61,25.61,0,0,1-46.87,20.6l-39.51-95.87-39.15,95.62a25.61,25.61,0,0,1-46.85-20.72L211.51,290a33.78,33.78,0,0,0,2.35-12.45V258a8.55,8.55,0,0,0-7.77-8.49l-72.45-6.56-.22,0a25.58,25.58,0,1,1,4.23-51L227.44,200c3.05.28,6.11.41,9.17.41h39.87q4.61,0,9.19-.42l89.64-8h.13a25.58,25.58,0,1,1,3.89,51Z"/></svg>