<?xml version="1.0" encoding="utf-8"?>
<!-- Generator: Adobe Illustrator 27.9.0, SVG Export Plug-In . SVG Version: 6.00 Build 0)  -->
<svg version="1.1" id="b" xmlns="http://www.w3.org/2000/svg" xmlns:xlink="http://www.w3.org/1999/xlink" x="0px" y="0px"
	 viewBox="0 0 448 512" style="enable-background:new 0 0 448 512;" xml:space="preserve">
<path d="M103.8,228.2c-5.8-5.9-8.8-13.5-8.8-21.2s2.9-15.4,8.8-21.2l99-99c5.9-5.8,13.5-8.8,21.2-8.8s15.4,2.9,21.2,8.8l99,99
	c11.7,11.7,11.7,30.7,0,42.4c-5.9,5.9-13.5,8.8-21.2,8.8s-15.4-2.9-21.2-8.8L224,150.4l-77.8,77.8
	C134.5,239.9,115.5,239.9,103.8,228.2L103.8,228.2z"/>
<path d="M224,437L224,437c-16.6,0-30-13.4-30-30V267c0-16.6,13.4-30,30-30h0c16.6,0,30,13.4,30,30v140C254,423.5,240.6,437,224,437z
	"/>
</svg>
