<?xml version="1.0" encoding="utf-8"?>
<svg version="1.1" id="Layer_1" xmlns="http://www.w3.org/2000/svg" xmlns:xlink="http://www.w3.org/1999/xlink" x="0px" y="0px"
	 viewBox="0 0 512 512" style="enable-background:new 0 0 512 512;" xml:space="preserve">
<path d="M9.4,278.6c-12.5-12.5-12.5-32.8,0-45.3l128-128c12.5-12.5,32.8-12.5,45.3,0s12.5,32.8,0,45.3L109.3,224H288
	c17.7,0,32,14.3,32,32s-14.3,32-32,32H109.3l73.4,73.4c12.5,12.5,12.5,32.8,0,45.3s-32.8,12.5-45.3,0L9.4,278.6L9.4,278.6z"/>
<path d="M354,256c0,43.6,35.4,79,79,79s79-35.4,79-79s-35.4-79-79-79S354,212.4,354,256z M465,256c0,17.7-14.3,32-32,32
	s-32-14.3-32-32s14.3-32,32-32S465,238.3,465,256z"/>
</svg>
