<?xml version="1.0" encoding="utf-8"?>
<svg version="1.1" id="Layer_1" xmlns="http://www.w3.org/2000/svg" xmlns:xlink="http://www.w3.org/1999/xlink" x="0px" y="0px"
	 viewBox="0 0 512 512" style="enable-background:new 0 0 512 512;" xml:space="preserve">
<path d="M502.6,233.4c12.5,12.5,12.5,32.8,0,45.3l-128,128c-12.5,12.5-32.8,12.5-45.3,0s-12.5-32.8,0-45.3l73.4-73.4H224
	c-17.7,0-32-14.3-32-32c0-17.7,14.3-32,32-32h178.7l-73.4-73.4c-12.5-12.5-12.5-32.8,0-45.3s32.8-12.5,45.3,0L502.6,233.4
	L502.6,233.4z"/>
<path d="M158,256c0-43.6-35.4-79-79-79S0,212.4,0,256s35.4,79,79,79S158,299.6,158,256z M47,256c0-17.7,14.3-32,32-32s32,14.3,32,32
	c0,17.7-14.3,32-32,32S47,273.7,47,256z"/>
</svg>
